<svg xmlns="http://www.w3.org/2000/svg">
    <path id="path-s8xy9w4pig"
        d="M964.292426,545.010336L889.118587,560.045104L821.46213,578.838564L757.564367,608.9081L701.183986,650.253712L644.803606,710.392783L607.216687,766.773162Q573.388458,838.188309,577.14715,838.188309Q580.905842,838.188309,554.594998,909.603457L550.836306,981.018605L558.35369,1056.192443L580.905842,1123.848898Q603.457994,1187.746661,607.216686,1187.746661Q610.975378,1187.746661,648.562297,1251.644425L701.183986,1304.266111Q757.564367,1345.611722,757.564367,1341.85303Q757.564367,1338.094338,821.46213,1375.681258L889.118587,1401.992102L964.292426,1405.750794L1035.707571,1401.992102L1107.122717,1390.716026L1178.537865,1360.64649L1242.435627,1323.05957L1295.057314,1270.437883L1340.161618,1214.057503L1373.989846,1150.159739L1400.300689,1078.744592Q1411.576765,981.39447,1411.576765,999.999995Q1411.576765,1018.60552,1400.300688,943.431681L1400.300687,868.257841L1373.989843,808.11877L1340.161614,736.703622L1295.057309,684.081934L1242.435622,635.218939L1178.537865,578.838564L1107.122717,560.045104L1035.707571,541.251639"
        transform="translate(0.000011 0.000005)" fill="none" stroke="rgb(63,87,135)" stroke-width="4"></path>
</svg>